<svg width="55" height="55" viewBox="0 0 55 55" fill="none" xmlns="http://www.w3.org/2000/svg">
<path d="M50.4163 43.5417V50.4167H4.58301V43.5417C4.58301 42.2812 5.61426 41.25 6.87467 41.25H48.1247C49.3851 41.25 50.4163 42.2812 50.4163 43.5417Z" fill="#111111"/>
<path opacity="0.6" d="M18.3337 25.2085H9.16699V41.2502H18.3337V25.2085Z" fill="#111111"/>
<path opacity="0.4" d="M27.4997 25.2085H18.333V41.2502H27.4997V25.2085Z" fill="#111111"/>
<path opacity="0.6" d="M36.6667 25.2085H27.5V41.2502H36.6667V25.2085Z" fill="#111111"/>
<path opacity="0.4" d="M45.8337 25.2085H36.667V41.2502H45.8337V25.2085Z" fill="#111111"/>
<path d="M52.7087 52.1353H2.29199C1.35241 52.1353 0.573242 51.3561 0.573242 50.4165C0.573242 49.4769 1.35241 48.6978 2.29199 48.6978H52.7087C53.6482 48.6978 54.4274 49.4769 54.4274 50.4165C54.4274 51.3561 53.6482 52.1353 52.7087 52.1353Z" fill="#111111"/>
<path d="M48.9726 13.1765L28.3476 4.92656C27.8892 4.74323 27.1101 4.74323 26.6518 4.92656L6.02677 13.1765C5.22469 13.4973 4.58301 14.4369 4.58301 15.3077V22.9161C4.58301 24.1765 5.61426 25.2078 6.87467 25.2078H48.1247C49.3851 25.2078 50.4163 24.1765 50.4163 22.9161V15.3077C50.4163 14.4369 49.7747 13.4973 48.9726 13.1765ZM27.4997 19.4786C25.5976 19.4786 24.0622 17.9432 24.0622 16.0411C24.0622 14.139 25.5976 12.6036 27.4997 12.6036C29.4018 12.6036 30.9372 14.139 30.9372 16.0411C30.9372 17.9432 29.4018 19.4786 27.4997 19.4786Z" fill="#111111"/>
</svg>
