<svg width="14" height="15" viewBox="0 0 14 15" fill="none" xmlns="http://www.w3.org/2000/svg">
<g id="vuesax/linear/coin">
<g id="coin">
<path id="Vector" d="M4.66675 6.79839C4.66675 7.24756 5.01675 7.61506 5.44258 7.61506H6.31758C6.69091 7.61506 6.99425 7.29422 6.99425 6.90339C6.99425 6.47756 6.80758 6.32589 6.53341 6.22672L5.13341 5.73672C4.85341 5.63756 4.66675 5.48589 4.66675 5.06006C4.66675 4.66922 4.97008 4.34839 5.34341 4.34839H6.21841C6.65008 4.35422 7.00008 4.71589 7.00008 5.16506" stroke="#00B0FF" stroke-linecap="round" stroke-linejoin="round"/>
<path id="Vector_2" d="M5.83325 7.64429V8.07595" stroke="#00B0FF" stroke-linecap="round" stroke-linejoin="round"/>
<path id="Vector_3" d="M5.83325 3.8877V4.3427" stroke="#00B0FF" stroke-linecap="round" stroke-linejoin="round"/>
<path id="Vector_4" d="M5.82758 10.6369C8.40169 10.6369 10.4884 8.55013 10.4884 5.97602C10.4884 3.40191 8.40169 1.31519 5.82758 1.31519C3.25347 1.31519 1.16675 3.40191 1.16675 5.97602C1.16675 8.55013 3.25347 10.6369 5.82758 10.6369Z" stroke="#00B0FF" stroke-linecap="round" stroke-linejoin="round"/>
<path id="Vector_5" d="M7.57178 11.745C8.09678 12.4859 8.95428 12.97 9.93428 12.97C11.5268 12.97 12.8218 11.675 12.8218 10.0825C12.8218 9.11419 12.3434 8.25669 11.6143 7.73169" stroke="#00B0FF" stroke-linecap="round" stroke-linejoin="round"/>
</g>
</g>
</svg>
