<svg width="55" height="55" viewBox="0 0 55 55" fill="none" xmlns="http://www.w3.org/2000/svg">
<path d="M48.698 50.4165H6.30224C5.36266 50.4165 4.5835 49.6373 4.5835 48.6978C4.5835 47.7582 5.36266 46.979 6.30224 46.979H48.698C49.6376 46.979 50.4168 47.7582 50.4168 48.6978C50.4168 49.6373 49.6376 50.4165 48.698 50.4165Z" fill="#111111"/>
<path opacity="0.4" d="M47.1845 31.3951L30.6158 47.9638C27.3616 51.218 22.1137 51.218 18.8824 47.9867L8.31787 37.4221L36.6428 9.09717L47.2074 19.6617C50.4387 22.893 50.4387 28.1409 47.1845 31.3951Z" fill="#111111"/>
<path d="M36.6417 9.09828L8.29383 37.4232L6.20842 35.3378C2.97717 32.1066 2.97717 26.8587 6.23134 23.6045L22.8001 7.03578C26.0542 3.78162 31.3021 3.78162 34.5334 7.01286L36.6417 9.09828Z" fill="#111111"/>
<path d="M29.5407 40.332L26.447 43.4257C25.8053 44.0674 24.774 44.0674 24.1324 43.4257C23.4907 42.784 23.4907 41.7528 24.1324 41.1111L27.2261 38.0174C27.8678 37.3757 28.899 37.3757 29.5407 38.0174C30.1824 38.659 30.1824 39.6903 29.5407 40.332Z" fill="#111111"/>
<path d="M39.5771 30.2958L33.4125 36.4604C32.7709 37.1021 31.7396 37.1021 31.0979 36.4604C30.4563 35.8187 30.4563 34.7875 31.0979 34.1458L37.2625 27.9812C37.9042 27.3396 38.9354 27.3396 39.5771 27.9812C40.1959 28.6229 40.1959 29.6542 39.5771 30.2958Z" fill="#111111"/>
</svg>
