<svg width="24" height="25" viewBox="0 0 24 25" fill="none" xmlns="http://www.w3.org/2000/svg">
<path d="M22 6.14844V8.56844C22 10.1484 21 11.1484 19.42 11.1484H16V4.15844C16 3.04844 16.91 2.14844 18.02 2.14844C19.11 2.15844 20.11 2.59844 20.83 3.31844C21.55 4.04844 22 5.04844 22 6.14844Z" stroke="#292D32" stroke-width="1.5" stroke-miterlimit="10" stroke-linecap="round" stroke-linejoin="round"/>
<path d="M2 7.14844V21.1484C2 21.9784 2.94 22.4484 3.6 21.9484L5.31 20.6684C5.71 20.3684 6.27 20.4084 6.63 20.7684L8.29 22.4384C8.68 22.8284 9.32 22.8284 9.71 22.4384L11.39 20.7584C11.74 20.4084 12.3 20.3684 12.69 20.6684L14.4 21.9484C15.06 22.4384 16 21.9684 16 21.1484V4.14844C16 3.04844 16.9 2.14844 18 2.14844H7H6C3 2.14844 2 3.93844 2 6.14844V7.14844Z" stroke="#292D32" stroke-width="1.5" stroke-miterlimit="10" stroke-linecap="round" stroke-linejoin="round"/>
<path d="M9 13.1584H12" stroke="#292D32" stroke-width="1.5" stroke-linecap="round" stroke-linejoin="round"/>
<path d="M9 9.15845H12" stroke="#292D32" stroke-width="1.5" stroke-linecap="round" stroke-linejoin="round"/>
<path d="M5.99561 13.1484H6.00459" stroke="#292D32" stroke-width="2" stroke-linecap="round" stroke-linejoin="round"/>
<path d="M5.99561 9.14844H6.00459" stroke="#292D32" stroke-width="2" stroke-linecap="round" stroke-linejoin="round"/>
</svg>
