<svg width="54" height="55" viewBox="0 0 54 55" fill="none" xmlns="http://www.w3.org/2000/svg">
<path d="M49.5 24.4766V35.7266C49.5 43.6016 45 46.9766 38.25 46.9766H15.75C9 46.9766 4.5 43.6016 4.5 35.7266V19.9766C4.5 12.1016 9 8.72656 15.75 8.72656H31.5" stroke="black" stroke-width="1.5" stroke-miterlimit="10" stroke-linecap="round" stroke-linejoin="round"/>
<path opacity="0.4" d="M15.75 21.1016L22.7925 26.7266C25.11 28.5716 28.9125 28.5716 31.23 26.7266L33.885 24.6116" stroke="black" stroke-width="1.5" stroke-miterlimit="10" stroke-linecap="round" stroke-linejoin="round"/>
<path opacity="0.4" d="M43.875 18.8516C46.9816 18.8516 49.5 16.3332 49.5 13.2266C49.5 10.12 46.9816 7.60156 43.875 7.60156C40.7684 7.60156 38.25 10.12 38.25 13.2266C38.25 16.3332 40.7684 18.8516 43.875 18.8516Z" stroke="black" stroke-width="1.5" stroke-miterlimit="10" stroke-linecap="round" stroke-linejoin="round"/>
</svg>
