<svg width="24" height="25" viewBox="0 0 24 25" fill="none" xmlns="http://www.w3.org/2000/svg">
<g id="vuesax/twotone/notification">
<g id="notification">
<path id="Vector" d="M12.0201 3.05835C8.71009 3.05835 6.02009 5.74835 6.02009 9.05835V11.9483C6.02009 12.5583 5.76009 13.4883 5.45009 14.0083L4.30009 15.9184C3.59009 17.0984 4.08009 18.4084 5.38009 18.8484C9.69009 20.2884 14.3401 20.2884 18.6501 18.8484C19.8601 18.4484 20.3901 17.0184 19.7301 15.9184L18.5801 14.0083C18.2801 13.4883 18.0201 12.5583 18.0201 11.9483V9.05835C18.0201 5.75835 15.3201 3.05835 12.0201 3.05835Z" stroke="#111111" stroke-width="1.5" stroke-miterlimit="10" stroke-linecap="round"/>
<path id="Vector_2" d="M13.8699 3.34838C13.5599 3.25838 13.2399 3.18838 12.9099 3.14838C11.9499 3.02838 11.0299 3.09838 10.1699 3.34838C10.4599 2.60838 11.1799 2.08838 12.0199 2.08838C12.8599 2.08838 13.5799 2.60838 13.8699 3.34838Z" stroke="#111111" stroke-width="1.5" stroke-miterlimit="10" stroke-linecap="round" stroke-linejoin="round"/>
<path id="Vector_3" opacity="0.4" d="M15.02 19.2085C15.02 20.8585 13.67 22.2085 12.02 22.2085C11.2 22.2085 10.44 21.8685 9.90002 21.3285C9.36002 20.7885 9.02002 20.0285 9.02002 19.2085" stroke="#111111" stroke-width="1.5" stroke-miterlimit="10"/>
</g>
</g>
</svg>
