<svg width="20" height="21" viewBox="0 0 20 21" fill="none" xmlns="http://www.w3.org/2000/svg">
<path d="M14.8251 19.1068H5.17508C2.89175 19.1068 1.04175 17.2485 1.04175 14.9652V8.79016C1.04175 7.65683 1.74175 6.23183 2.64175 5.53183L7.13341 2.03183C8.48342 0.981831 10.6417 0.931831 12.0417 1.91516L17.1917 5.5235C18.1834 6.21516 18.9584 7.6985 18.9584 8.90683V14.9735C18.9584 17.2485 17.1084 19.1068 14.8251 19.1068ZM7.90008 3.01516L3.40841 6.51516C2.81675 6.98183 2.29175 8.04016 2.29175 8.79016V14.9652C2.29175 16.5568 3.58341 17.8568 5.17508 17.8568H14.8251C16.4167 17.8568 17.7084 16.5652 17.7084 14.9735V8.90683C17.7084 8.10683 17.1334 6.9985 16.4751 6.5485L11.3251 2.94016C10.3751 2.2735 8.80841 2.30683 7.90008 3.01516Z" fill="black"/>
<path d="M10 15.7734C9.65833 15.7734 9.375 15.4901 9.375 15.1484V12.6484C9.375 12.3068 9.65833 12.0234 10 12.0234C10.3417 12.0234 10.625 12.3068 10.625 12.6484V15.1484C10.625 15.4901 10.3417 15.7734 10 15.7734Z" fill="black"/>
</svg>
