<svg width="24" height="25" viewBox="0 0 24 25" fill="none" xmlns="http://www.w3.org/2000/svg">
<path d="M20.5 11.4484V7.18845C20.5 3.15845 19.56 2.14844 15.78 2.14844H8.22C4.44 2.14844 3.5 3.15845 3.5 7.18845V18.4484C3.5 21.1084 4.96001 21.7384 6.73001 19.8384L6.73999 19.8284C7.55999 18.9584 8.80999 19.0284 9.51999 19.9784L10.53 21.3284" stroke="#292D32" stroke-width="1.5" stroke-linecap="round" stroke-linejoin="round"/>
<path d="M18.2 21.5484C19.9673 21.5484 21.4 20.1158 21.4 18.3484C21.4 16.5811 19.9673 15.1484 18.2 15.1484C16.4327 15.1484 15 16.5811 15 18.3484C15 20.1158 16.4327 21.5484 18.2 21.5484Z" stroke="#292D32" stroke-width="1.5" stroke-linecap="round" stroke-linejoin="round"/>
<path d="M22 22.1484L21 21.1484" stroke="#292D32" stroke-width="1.5" stroke-linecap="round" stroke-linejoin="round"/>
<path d="M8 7.14844H16" stroke="#292D32" stroke-width="1.5" stroke-linecap="round" stroke-linejoin="round"/>
<path d="M9 11.1484H15" stroke="#292D32" stroke-width="1.5" stroke-linecap="round" stroke-linejoin="round"/>
</svg>
