<svg width="24" height="25" viewBox="0 0 24 25" fill="none" xmlns="http://www.w3.org/2000/svg">
<path d="M12 12.1484C14.7614 12.1484 17 9.90986 17 7.14844C17 4.38701 14.7614 2.14844 12 2.14844C9.23858 2.14844 7 4.38701 7 7.14844C7 9.90986 9.23858 12.1484 12 12.1484Z" stroke="#292D32" stroke-width="1.5" stroke-linecap="round" stroke-linejoin="round"/>
<path d="M3.40991 22.1484C3.40991 18.2784 7.25991 15.1484 11.9999 15.1484C12.9599 15.1484 13.8899 15.2784 14.7599 15.5184" stroke="#292D32" stroke-width="1.5" stroke-linecap="round" stroke-linejoin="round"/>
<path d="M22 18.1484C22 18.8984 21.79 19.6084 21.42 20.2084C21.21 20.5684 20.94 20.8884 20.63 21.1484C19.93 21.7784 19.01 22.1484 18 22.1484C16.54 22.1484 15.27 21.3684 14.58 20.2084C14.21 19.6084 14 18.8984 14 18.1484C14 16.8884 14.58 15.7584 15.5 15.0284C16.19 14.4784 17.06 14.1484 18 14.1484C20.21 14.1484 22 15.9384 22 18.1484Z" stroke="#292D32" stroke-width="1.5" stroke-miterlimit="10" stroke-linecap="round" stroke-linejoin="round"/>
<path d="M16.4399 18.1484L17.4299 19.1384L19.5599 17.1685" stroke="#292D32" stroke-width="1.5" stroke-linecap="round" stroke-linejoin="round"/>
</svg>
