<svg width="18" height="19" viewBox="0 0 18 19" fill="none" xmlns="http://www.w3.org/2000/svg">
<path d="M15 5.42844V12.8684C15 14.0084 14.895 14.8184 14.625 15.3959C14.625 15.4034 14.6175 15.4184 14.61 15.4259C14.445 15.6359 14.2275 15.7409 13.9725 15.7409C13.575 15.7409 13.095 15.4784 12.5775 14.9234C11.9625 14.2634 11.0175 14.3159 10.4775 15.0359L9.72002 16.0409C9.42002 16.4459 9.0225 16.6484 8.625 16.6484C8.2275 16.6484 7.82998 16.4459 7.52998 16.0409L6.76501 15.0284C6.23251 14.3159 5.29499 14.2634 4.67999 14.9159L4.67249 14.9234C3.82499 15.8309 3.07501 15.9659 2.64001 15.4259C2.63251 15.4184 2.625 15.4034 2.625 15.3959C2.355 14.8184 2.25 14.0084 2.25 12.8684V5.42844C2.25 4.28844 2.355 3.47844 2.625 2.90094C2.625 2.89344 2.62501 2.88594 2.64001 2.87844C3.06751 2.33094 3.82499 2.46594 4.67249 3.37344L4.67999 3.38094C5.29499 4.03344 6.23251 3.98094 6.76501 3.26844L7.52998 2.25594C7.82998 1.85094 8.2275 1.64844 8.625 1.64844C9.0225 1.64844 9.42002 1.85094 9.72002 2.25594L10.4775 3.26094C11.0175 3.98094 11.9625 4.03344 12.5775 3.37344C13.095 2.81844 13.575 2.55594 13.9725 2.55594C14.2275 2.55594 14.445 2.66844 14.61 2.87844C14.625 2.88594 14.625 2.89344 14.625 2.90094C14.895 3.47844 15 4.28844 15 5.42844Z" stroke="#454545" stroke-linecap="round" stroke-linejoin="round"/>
<path d="M6 7.83594H12" stroke="#454545" stroke-linecap="round" stroke-linejoin="round"/>
<path d="M6 10.4609H10.5" stroke="#454545" stroke-linecap="round" stroke-linejoin="round"/>
</svg>
