<svg width="49" height="9" viewBox="0 0 49 9" fill="none" xmlns="http://www.w3.org/2000/svg">
<path d="M0.756 9V0.599999H4.704C5.272 0.599999 5.768 0.695999 6.192 0.887999C6.616 1.08 6.948 1.352 7.188 1.704C7.428 2.048 7.548 2.448 7.548 2.904C7.548 3.272 7.452 3.612 7.26 3.924C7.076 4.228 6.824 4.476 6.504 4.668C6.912 4.86 7.236 5.12 7.476 5.448C7.716 5.776 7.836 6.148 7.836 6.564C7.836 7.044 7.712 7.468 7.464 7.836C7.224 8.204 6.88 8.492 6.432 8.7C5.992 8.9 5.48 9 4.896 9H0.756ZM2.496 4.032H4.596C4.972 4.032 5.268 3.944 5.484 3.768C5.708 3.584 5.82 3.34 5.82 3.036C5.82 2.732 5.708 2.492 5.484 2.316C5.268 2.132 4.972 2.04 4.596 2.04H2.496V4.032ZM2.496 7.56H4.764C5.164 7.56 5.484 7.464 5.724 7.272C5.964 7.072 6.084 6.808 6.084 6.48C6.084 6.144 5.964 5.88 5.724 5.688C5.484 5.488 5.164 5.388 4.764 5.388H2.496V7.56ZM14.8129 9V0.599999H21.2689V2.112H16.5529V4.032H19.6609V5.496H16.5529V7.488H21.3169V9H14.8129ZM30.5993 9V2.136H27.7673V0.599999H35.1593V2.136H32.3393V9H30.5993ZM39.5562 9L43.0122 0.599999H45.0162L48.4362 9H46.5522L45.7002 6.792H42.2322L41.3682 9H39.5562ZM42.7722 5.4H45.1722L43.9722 2.304L42.7722 5.4Z" fill="black"/>
</svg>
