<svg width="87" height="22" viewBox="0 0 87 22" fill="none" xmlns="http://www.w3.org/2000/svg">
<path d="M10.4238 21.8646V14.5772H10.3564C10.2106 15.0597 9.98057 15.43 9.67202 15.688C9.36348 15.9461 8.90347 16.0975 8.28638 16.1424C6.7156 16.2041 5.29629 16.2041 4.03406 16.1424C2.91769 16.0975 2.0762 15.7722 1.49838 15.1607C0.926166 14.5492 0.612011 13.7638 0.550302 12.7933C0.477373 11.3403 0.477373 9.91537 0.550302 8.51849C0.595181 7.60968 0.914947 6.81306 1.52082 6.13987C2.12108 5.46667 2.9794 5.12447 4.09577 5.12447H13.5429C13.5709 6.78501 13.5877 9.26461 13.5877 12.5689C13.5877 15.89 13.5709 20.2209 13.5429 21.8646H10.4181H10.4238ZM5.18409 13.7806H9.12786C9.55422 13.7806 9.87959 13.6292 10.0984 13.3262C10.3172 13.0233 10.4294 12.625 10.4294 12.1257V7.48065H5.1897C4.21919 7.48065 3.73673 8.04725 3.73673 9.17486V12.0808C3.73673 13.214 4.21919 13.775 5.1897 13.775L5.18409 13.7806ZM19.5006 16.1368C18.3842 16.1088 17.5427 15.7834 16.9705 15.1551C16.3983 14.5324 16.0842 13.747 16.0224 12.8101C15.9327 11.1383 15.9327 8.57459 16.0224 5.12447C19.4557 5.03471 22.7095 5.03471 25.7781 5.12447C26.9113 5.15252 27.7696 5.4835 28.3643 6.11743C28.9589 6.75135 29.2731 7.53675 29.3011 8.47361C29.3572 9.92659 29.3572 11.3515 29.3011 12.7484C29.2562 13.6123 28.9421 14.3921 28.353 15.0709C27.764 15.7553 26.9057 16.1088 25.7781 16.1368C23.68 16.2097 21.5875 16.2097 19.5006 16.1368ZM20.6001 13.8031H24.6729C25.6547 13.8031 26.1483 13.2365 26.1483 12.1089V9.18046C26.1483 8.03603 25.6547 7.46382 24.6729 7.46382H19.1472V12.1089C19.1472 13.2421 19.6296 13.8031 20.6001 13.8031ZM31.8087 3.4527C31.7639 2.92536 31.7414 2.37559 31.7414 1.80337C31.7414 1.20311 31.7639 0.653333 31.8087 0.154047H34.8493C34.8942 0.743093 34.9166 1.29287 34.9166 1.80337C34.9166 2.33071 34.8942 2.88049 34.8493 3.4527H31.8087ZM31.8312 16.1368C31.7863 14.9194 31.7639 13.085 31.7639 10.6278C31.7639 8.17628 31.7863 6.34183 31.8312 5.11886H34.8942C34.9223 6.33622 34.9391 8.17067 34.9391 10.6278C34.9391 13.0794 34.9223 14.9138 34.8942 16.1368H31.8312ZM37.5365 16.1368C37.4916 14.9194 37.4692 13.085 37.4692 10.6278C37.4692 8.17628 37.4916 6.34183 37.5365 5.11886H40.3751H43.8162L39.3931 5.94623C39.7633 4.93083 41.8 5.16374 42.9725 5.11886C44.6442 5.04593 47.0453 5.04593 50.1756 5.11886C50.2485 8.23238 50.2429 11.9013 50.1532 16.1312H47.0453V7.4526H42.0244C41.0988 7.4526 40.6388 7.99115 40.6388 9.06266V16.1312H37.5309L37.5365 16.1368ZM52.7113 21.8646C52.6664 20.2209 52.644 15.8844 52.644 12.5464C52.644 9.24218 52.6664 6.76818 52.7113 5.12447H55.5499H58.2777L53.8874 5.94623C54.1679 4.94766 56.829 5.18618 57.9285 5.12447C59.3254 5.05154 61.9059 5.05154 65.6814 5.12447C65.7712 8.76533 65.7768 11.3066 65.7038 12.7428C65.6478 13.6235 65.3224 14.4089 64.7333 15.099C64.1443 15.789 63.2916 16.1368 62.1808 16.1368H55.8136V21.8646H52.7057H52.7113ZM55.8192 13.7582H61.0813C62.0518 13.7582 62.5343 13.1916 62.5343 12.064V7.45821H57.1151C56.2511 7.45821 55.8136 8.00798 55.8136 9.10754V13.7526L55.8192 13.7582ZM70.8425 16.1368C69.1988 16.0919 68.2564 15.3065 68.0208 13.7806C67.9927 13.545 67.9759 13.1804 67.9759 12.6923C67.9759 12.1986 67.9927 11.8171 68.0208 11.5366C68.1947 10.022 69.182 9.27022 70.9716 9.27022H75.639C76.6656 9.27022 79.4089 9.3181 79.7174 10.053L77.7147 9.56985L77.7091 8.98412C77.7091 7.98554 77.2098 7.48626 76.2112 7.48626H72.5311C70.9323 7.48626 69.7318 7.44699 68.9408 7.37406V5.13008H77.1761C78.2757 5.13008 79.1228 5.38814 79.7174 5.90986C80.3121 6.43159 80.6487 7.18893 80.7216 8.1875C80.7945 9.75829 80.8001 12.4118 80.744 16.1368H70.8313H70.8425ZM71.8804 13.8255L77.7147 13.8031V12.395C77.7147 11.6769 77.3557 11.3179 76.6376 11.3179H71.9701C71.3362 11.3179 71.022 11.632 71.022 12.2659V12.8382C71.022 13.4833 71.3082 13.8143 71.8804 13.8311V13.8255ZM83.3975 16.1368C83.3527 14.3585 83.3302 11.6937 83.3302 8.14262C83.3302 4.59152 83.3527 1.92679 83.3975 0.148438H86.4605C86.4886 1.92679 86.5054 4.59152 86.5054 8.14262C86.5054 11.6937 86.4886 14.3641 86.4605 16.1368H83.3975Z" fill="#111111"/>
<path fill-rule="evenodd" clip-rule="evenodd" d="M14.6367 21.8646V19.5029L16.056 18.6838L17.4753 17.8647V19.5029H48.7618V17.8647L50.1811 18.6838L51.6005 19.5029V21.8646H14.6367Z" fill="#111111"/>
</svg>
