<svg width="156" height="52" viewBox="0 0 156 52" fill="none" xmlns="http://www.w3.org/2000/svg">
<path fill-rule="evenodd" clip-rule="evenodd" d="M155.242 50.4322C152.473 47.1177 149.425 44.3086 146.22 41.7754C142.539 45.2324 138.875 48.8663 135.139 52.5726L135.138 52.5734L135.126 52.585C134.62 53.087 134.113 53.5903 133.604 54.0947C132.017 55.6677 130.414 57.2506 128.791 58.8349C129.793 59.7137 130.785 60.6417 131.763 61.6266C133.161 63.0351 134.531 64.4857 135.939 65.8818L134.876 66.7328C133.503 65.3727 132.169 63.9503 130.806 62.5772C129.825 61.5893 128.829 60.6593 127.821 59.7791C122.373 65.0676 116.673 70.3536 110.474 75.3252C113.186 76.7533 115.778 78.3116 118.138 80.1297L117.053 80.9985C114.692 79.2125 112.08 77.6738 109.318 76.2439C105.699 79.0948 101.908 81.8342 97.8972 84.4019C96.0572 85.6569 94.1016 86.9991 92.0821 88.3908C94.9945 89.9969 97.952 91.7972 100.905 93.9231L99.8105 94.799C96.8135 92.6647 93.8072 90.8624 90.8387 89.2483C84.8298 93.3955 78.3604 97.9038 72.7504 101.813L70.6963 103.245C70.841 103.319 70.9857 103.393 71.1304 103.467C71.1957 103.5 71.2609 103.534 71.3261 103.567C72.0962 103.96 72.8672 104.352 73.6375 104.743C76.4474 106.169 79.2476 107.59 81.9529 109.092L80.8134 110.004C78.2901 108.618 75.6805 107.293 73.0383 105.952C72.2653 105.56 71.4894 105.166 70.7121 104.769C70.2894 104.553 69.8664 104.336 69.4434 104.117C65.0584 107.172 61.4738 109.662 59.4785 111.016L58.6329 109.959C60.5096 108.688 63.9033 106.332 68.0909 103.415C64.025 101.288 59.981 99.0165 56.1997 96.3332C52.6844 93.8387 49.397 90.9888 46.5208 87.5689C45.2507 88.5638 44.0998 89.5605 43.1018 90.555L42.2538 89.4956C43.2614 88.5016 44.4104 87.5095 45.6685 86.5232C41.8022 81.6263 38.7597 75.5954 37.0276 67.8606C33.8105 69.6877 30.9352 71.2956 28.6707 72.5249L27.814 71.4546C30.1851 70.1708 33.2691 68.4455 36.735 66.475C36.6734 66.1648 36.6139 65.8519 36.5564 65.5364C36.0981 63.6273 35.6639 61.7784 35.2426 59.9849L35.2409 59.9774L35.2407 59.9766C34.4158 56.4648 33.6408 53.165 32.833 50.0404C28.3804 52.4214 23.8446 55.0178 19.0446 58.2247C18.6221 58.5069 18.2292 58.7703 17.8607 59.019L17.0148 57.9621C17.4117 57.6939 17.8364 57.4091 18.295 57.1027C23.2422 53.7976 27.9129 51.1343 32.481 48.6987C30.6511 41.828 28.5983 35.805 25.4015 30.2168C25.3876 30.1923 25.3736 30.1679 25.3596 30.1435L25.3345 30.1C21.2474 32.473 16.9109 34.847 12.3195 37.188C10.2284 38.3084 8.47534 39.2156 7.01119 39.9734C5.7874 40.6068 4.76543 41.1357 3.91656 41.5973L3.06044 40.5277C3.96393 40.0318 5.08156 39.4531 6.42845 38.7557C7.90109 37.9931 9.64779 37.0887 11.6883 35.9954L11.6943 35.9922L11.7005 35.9891C16.2673 33.6607 20.5807 31.2996 24.646 28.9395C20.7764 22.6122 15.2961 16.7996 6.77901 10.9406C0.828122 14.9758 -5.04898 19.0704 -10.7129 23.3193L-11.5565 22.2655C-6.00146 18.0971 -0.244847 14.0788 5.57598 10.1262C2.85983 8.31637 -0.151804 6.49965 -3.50088 4.65954L-2.36118 3.74734C1.00858 5.61481 4.04217 7.46308 6.7809 9.30949C9.9727 7.14991 13.1809 5.00828 16.383 2.87076L16.3837 2.87026C18.1972 1.65971 20.0088 0.450376 21.8142 -0.760065C22.901 -1.48874 23.9857 -2.21787 25.0673 -2.94802C22.2557 -5.36684 19.0854 -7.88511 15.496 -10.5453L16.5852 -11.4172C20.1964 -8.73187 23.3899 -6.18437 26.2254 -3.73101C31.9541 -7.61038 37.5894 -11.5243 43.0047 -15.5576C40.0353 -18.4084 36.6462 -21.3003 32.7312 -24.3403L33.8143 -25.2072C37.7224 -22.1612 41.1168 -19.2532 44.0993 -16.3768C49.5564 -20.4809 54.7787 -24.7134 59.6345 -29.1627C56.6423 -32.6068 53.8161 -35.3967 51.2475 -37.9323C51.0164 -38.1604 50.7874 -38.3864 50.5606 -38.6107L51.6232 -39.4612C51.7821 -39.3041 51.9423 -39.1459 52.1036 -38.9865C54.6885 -36.4335 57.5794 -33.5782 60.6244 -30.0778C65.5037 -34.6297 68.715 -38.2509 71.8222 -41.7546C72.8412 -42.9037 73.8491 -44.0402 74.9008 -45.1927C75.5756 -45.9321 76.2672 -46.6765 76.9898 -47.4332C74.7904 -50.2697 72.7259 -52.7862 70.9094 -54.8977L71.9634 -55.7413C73.7517 -53.6612 75.7783 -51.1921 77.937 -48.4133C80.9067 -51.449 84.4562 -54.7246 89.4659 -58.6877C87.6447 -61.1891 85.9234 -63.5063 84.3207 -65.632L85.3746 -66.4755C86.9798 -64.3469 88.7039 -62.0263 90.5282 -59.5212C91.5606 -60.3248 92.6526 -61.1566 93.8111 -62.0201L94.6548 -60.966C93.4766 -60.0883 92.3679 -59.2438 91.3215 -58.4288C92.9883 -56.1273 94.7341 -53.6773 96.5452 -51.0839C98.6386 -48.0864 100.763 -44.4278 102.925 -40.4707C104.559 -41.6115 106.366 -42.7187 108.399 -43.7944L109.257 -42.7215C107.131 -41.6083 105.257 -40.4618 103.574 -39.2777C104.384 -37.7803 105.199 -36.2465 106.02 -34.695C106.301 -34.1646 106.582 -33.632 106.865 -33.098L106.872 -33.0843C109.171 -28.7338 111.521 -24.2876 113.94 -20.1223C116.603 -22.4679 119.374 -24.5846 122.321 -26.3997L123.171 -25.3381C120.169 -23.5034 117.35 -21.3451 114.635 -18.9369C115.127 -18.1073 115.621 -17.2907 116.118 -16.4901C118.283 -13.0033 120.64 -9.80495 123.137 -6.81307C126.047 -8.92371 129.337 -10.9472 133.147 -12.8739L134.009 -11.7972C130.196 -9.88505 126.912 -7.87758 124.012 -5.78066C129.48 0.586823 135.58 6.03356 141.8 11.388C143.918 9.04246 145.844 6.95595 147.606 5.19093L148.455 6.25103C146.751 7.9635 144.883 9.98947 142.826 12.2693C143.435 12.7915 144.044 13.3133 144.654 13.8354L144.655 13.8362C149.983 18.3963 155.342 22.9834 160.384 28.1036C161.565 27.2514 162.76 26.4277 163.97 25.6355L164.817 26.6938C163.643 27.4601 162.483 28.2566 161.336 29.0807C164.26 32.1156 167.069 35.3438 169.692 38.8664L168.638 39.7101C166.005 36.1704 163.182 32.9312 160.235 29.8824C155.767 33.1805 151.474 36.8885 147.216 40.8452C150.433 43.4025 153.505 46.2466 156.296 49.5889L155.242 50.4322ZM101.293 -6.91135C99.6927 -5.04404 98.0911 -3.132 96.4701 -1.19461L96.1701 -0.836052C92.3529 3.72676 88.4161 8.43246 84.122 13.051C81.3616 5.04469 78.4882 -1.7089 75.5885 -7.47612C81.87 -13.5734 85.8115 -19.0316 89.3469 -23.9272C90.0051 -24.8387 90.6492 -25.7307 91.2917 -26.6037C95.0675 -20.3093 98.5736 -13.6156 101.293 -6.91135ZM101.856 -5.49306C102.717 -3.2782 103.488 -1.06518 104.151 1.13198L104.156 1.15055L104.163 1.16878C105.168 3.92068 106.324 6.42605 107.605 8.72503C106.255 10.4589 104.937 12.2254 103.6 14.021L103.354 14.3522C99.5821 19.418 95.6327 24.7229 90.3899 30.2157C87.9088 26.3026 85.9889 21.4736 84.8547 15.2352L84.8461 15.188L84.8309 15.1426C84.7592 14.9274 84.6875 14.7131 84.6156 14.4997C89.1244 9.68883 93.2231 4.78956 97.1698 0.0719221L97.505 -0.328763C98.9718 -2.08196 100.418 -3.80763 101.856 -5.49306ZM105.437 0.723804C106.343 3.20127 107.374 5.47352 108.511 7.57214C112.334 2.75925 116.485 -1.79249 122.052 -6.00844C119.537 -9.02657 117.159 -12.2567 114.972 -15.7783C114.516 -16.5113 114.064 -17.2575 113.614 -18.0145C109.916 -14.6182 106.396 -10.767 102.85 -6.65241C103.828 -4.18815 104.698 -1.72319 105.437 0.723804ZM126.382 28.2688C119.561 23.5161 113.151 18.064 108.333 9.98803C107.11 11.5704 105.906 13.1839 104.682 14.8268L104.432 15.1636C100.599 20.312 96.5594 25.7377 91.1546 31.3681C91.3716 31.6807 91.5923 31.9872 91.8167 32.2879C94.9936 36.5462 98.9258 39.6793 103.295 42.4802C104.93 43.5285 106.606 44.5191 108.319 45.501C115.187 39.5743 121.159 33.721 126.382 28.2688ZM127.325 27.2808C120.396 22.4696 113.977 17.0114 109.225 8.84431C113.113 3.91004 117.281 -0.712852 122.924 -4.97668C128.478 1.50316 134.655 7.01757 140.897 12.3909C140.164 13.2066 139.409 14.0508 138.631 14.9211L138.622 14.9302C135.307 18.6359 131.569 22.8145 127.325 27.2808ZM127.509 29.0452C127.711 29.1833 127.914 29.3208 128.117 29.4579C130.043 30.759 131.989 32.0157 133.932 33.2706C137.736 35.727 141.528 38.1763 145.141 40.9372C141.502 44.3602 137.89 47.9429 134.225 51.5788L134.224 51.5796C133.702 52.0975 133.179 52.6165 132.654 53.1363C131.039 54.7369 129.411 56.3453 127.762 57.9532C124.347 55.09 120.824 52.76 117.336 50.6668C115.271 49.4278 113.242 48.2843 111.256 47.165L111.255 47.1649L111.255 47.1645L111.254 47.1641L111.25 47.1615C110.683 46.8422 110.12 46.5249 109.56 46.2079C116.381 40.2978 122.319 34.4674 127.509 29.0452ZM134.587 32.0851C138.469 34.5907 142.39 37.1217 146.139 40.0036C150.427 36.0132 154.764 32.257 159.283 28.9085C154.329 23.8937 149.05 19.3751 143.757 14.8435C143.146 14.3202 142.534 13.7968 141.923 13.2724C141.206 14.0702 140.468 14.8963 139.706 15.7483L139.704 15.75C136.412 19.4312 132.687 23.5957 128.453 28.0554C128.592 28.1504 128.732 28.2451 128.872 28.3397C130.75 29.6083 132.664 30.8436 134.587 32.0851ZM116.642 51.8238C120.058 53.874 123.481 56.1376 126.79 58.899C121.245 64.2791 115.458 69.6342 109.161 74.6476C108.407 74.2658 107.644 73.8922 106.877 73.5242C105.193 72.7163 103.489 71.9376 101.783 71.1578C98.4508 69.6346 95.1091 68.1071 91.8812 66.3489C90.2043 65.4356 88.5661 64.4639 86.9895 63.4046C94.9772 58.1023 102.104 52.596 108.475 47.1428C109.198 47.5543 109.927 47.9652 110.659 48.378C112.644 49.4977 114.654 50.6309 116.642 51.8238ZM106.294 74.7408C106.864 75.0145 107.431 75.2906 107.991 75.5702C104.55 78.2595 100.954 80.8431 97.1614 83.2708L97.1531 83.2761L97.145 83.2816C95.1275 84.6578 92.9741 86.1364 90.7521 87.6686C89.7866 87.1522 88.8269 86.6551 87.8749 86.1724C86.0595 85.2521 84.2807 84.3884 82.5446 83.5454L82.5443 83.5452L82.5422 83.5442L82.5418 83.544C79.1964 81.9196 76.0093 80.3721 73.0228 78.6444C71.0272 77.4899 69.1372 76.2632 67.3744 74.8937C67.6066 74.7688 67.8382 74.6444 68.0691 74.5204C68.2904 74.4015 68.511 74.283 68.7309 74.1649C73.1498 71.7917 77.2563 69.5863 80.3207 67.6548C82.1802 66.5179 83.9967 65.3678 85.7713 64.2072C87.5303 65.4177 89.3626 66.5136 91.2358 67.5339C94.5027 69.3133 97.9231 70.8771 101.283 72.4132C102.978 73.1881 104.657 73.9559 106.294 74.7408ZM87.2648 87.3759C88.0069 87.7521 88.7526 88.1367 89.5012 88.5319C83.6271 92.5885 77.3692 96.9497 71.9309 100.74L71.9231 100.745L71.9222 100.746C71.0382 101.362 70.1759 101.963 69.3404 102.545C65.0828 100.333 60.8826 98.0018 56.9806 95.2328C53.5671 92.8105 50.3812 90.0533 47.5943 86.7493C51.4529 83.874 56.2329 81.0247 61.1184 78.3039C62.7709 77.3836 64.4365 76.4775 66.0797 75.591C68.0364 77.1584 70.1381 78.5344 72.3471 79.8123C75.3734 81.5631 78.6374 83.1483 82.0121 84.7873L82.0132 84.7878L82.0135 84.788L82.014 84.7882L82.016 84.7891L82.0201 84.7912C83.7451 85.6289 85.499 86.4807 87.2648 87.3759ZM107.234 46.4323C105.636 45.5115 104.072 44.5813 102.566 43.6161C98.1237 40.7678 94.0455 37.5318 90.7352 33.0948C90.5534 32.8511 90.374 32.6039 90.197 32.3531C85.6703 36.95 80.1964 41.6793 73.1524 46.5022C75.9336 53.8009 80.4625 58.7563 85.7961 62.5769C93.7685 57.3149 100.877 51.8502 107.234 46.4323ZM84.5892 63.3676C79.3353 59.515 74.8321 54.5178 72.0055 47.279C71.4808 47.6304 70.9476 47.9824 70.4058 48.3348L70.3962 48.341L70.3864 48.3469C66.4417 50.7268 61.1801 53.849 55.6079 57.1164C57.0106 61.9659 58.9695 65.7707 61.354 68.8895C62.8219 70.8093 64.4573 72.4774 66.2358 73.9736C66.883 73.6252 67.5248 73.2806 68.1591 72.94L68.1595 72.9398C72.5451 70.5849 76.5766 68.42 79.6051 66.5109L79.609 66.5085L79.613 66.506C81.3076 65.47 82.966 64.4232 84.5892 63.3676ZM64.9622 74.6605C63.2731 73.1976 61.7043 71.5691 60.2821 69.709C57.8393 66.514 55.8451 62.6569 54.4079 57.8195C48.9399 61.0206 43.2453 64.3191 38.2554 67.1622C39.9248 74.8827 42.915 80.8629 46.7403 85.7035C50.702 82.745 55.5704 79.8492 60.4619 77.1251C61.9681 76.2862 63.4759 75.4639 64.9622 74.6605ZM83.5539 15.6227C84.7459 22.088 86.7766 27.1194 89.4261 31.2125C84.9752 35.7558 79.6011 40.4245 72.68 45.1898C72.0367 43.2943 71.5061 41.2477 71.1031 39.0311L71.0978 39.0022L71.0901 38.9738C70.1551 35.556 69.2676 32.3484 68.3991 29.3223C74.0436 25.04 79.0109 20.3854 83.5539 15.6227ZM69.7808 39.3015C70.2207 41.7129 70.808 43.9307 71.5239 45.977C70.9207 46.3832 70.3061 46.79 69.6796 47.1975C65.8099 49.532 60.6812 52.5759 55.2394 55.7683C54.9227 54.5404 54.6397 53.2486 54.3923 51.8878L54.3889 51.8693L54.3845 51.851C53.8586 49.6602 53.3682 47.5605 52.8964 45.5406L52.8963 45.5402C52.4634 43.6866 52.0462 41.9001 51.6315 40.1718C56.3348 37.542 61.2047 34.5557 66.4248 30.7843C66.6991 30.5861 66.9718 30.387 67.2429 30.1871C68.061 33.0486 68.8991 36.0783 69.7808 39.3015ZM53.0681 52.1478C53.3453 53.6699 53.6668 55.1109 54.0302 56.477C48.6111 59.6508 42.9542 62.9291 37.9725 65.7704C37.9413 65.6065 37.9106 65.4418 37.8806 65.2764L37.8772 65.2579L37.8728 65.2396C37.4156 63.335 36.9813 61.4849 36.5589 59.6853L36.5581 59.6818L36.558 59.6812C35.7073 56.0568 34.9047 52.6372 34.0589 49.389C36.191 48.2628 38.3077 47.178 40.4291 46.0907L40.4295 46.0905L40.4378 46.0862L40.4424 46.0839C41.0877 45.7532 41.7334 45.4222 42.3802 45.0898C45.0284 43.7286 47.6916 42.3438 50.4056 40.8515C50.7876 42.4496 51.1738 44.1019 51.5744 45.8162C52.0465 47.8363 52.5388 49.9426 53.0681 52.1478ZM83.0775 14.165C80.3239 6.08908 77.4578 -0.708274 74.5684 -6.49992C73.7952 -5.7705 72.9878 -5.03207 72.1431 -4.28451L71.76 -3.94549L71.7598 -3.94528C68.8301 -1.35205 64.9914 2.04584 60.1976 5.95999C63.1349 12.2635 65.5059 19.3597 67.9975 27.9318C73.6103 23.6301 78.5477 18.9547 83.0775 14.165ZM66.8448 28.8027C64.3476 20.1716 62.0023 13.0929 59.1174 6.83748C54.876 10.2655 49.9267 14.0591 44.2401 18.0353C47.4674 24.3558 49.3945 30.9909 51.302 38.8096C55.8701 36.2433 60.5874 33.3371 65.6346 29.6905C66.0415 29.3966 66.4448 29.1006 66.8448 28.8027ZM50.0781 39.4913C48.1677 31.6207 46.2863 25.0586 43.1218 18.813C38.1367 22.2607 32.6023 25.8352 26.4997 29.4195L26.5398 29.4891L26.5728 29.5468C29.791 35.1725 31.8746 41.2331 33.7049 48.0501C35.7514 46.9717 37.7803 45.932 39.8073 44.8932L39.8083 44.8927L39.8101 44.8917C40.4612 44.558 41.1121 44.2245 41.7633 43.8897C44.5125 42.4767 47.2699 41.0421 50.0781 39.4913ZM112.914 -19.2027C110.429 -23.4666 108.021 -28.0226 105.682 -32.4482C105.396 -32.9889 105.111 -33.5277 104.828 -34.0638C104.035 -35.562 103.25 -37.0384 102.473 -38.4774C98.1369 -35.2239 95.1029 -31.6863 92.1619 -27.7742C95.9579 -21.4882 99.5011 -14.7893 102.281 -8.05856C105.753 -12.0685 109.237 -15.8492 112.914 -19.2027ZM90.2422 -27.454C90.3402 -27.5871 90.4382 -27.7197 90.5363 -27.852C86.3541 -34.7023 81.8882 -41.0403 77.8229 -46.3517C77.1588 -45.6537 76.5209 -44.9662 75.8975 -44.2831C74.8639 -43.1505 73.867 -42.0263 72.8544 -40.8845L72.8542 -40.8842C69.7311 -37.3623 66.4593 -33.6727 61.5041 -29.0532C62.5443 -27.8256 63.6005 -26.5202 64.6669 -25.1238C68.0248 -20.7267 71.5 -15.4124 74.9472 -8.73497C80.9614 -14.6228 84.7718 -19.8981 88.2462 -24.7084L88.2465 -24.7087C88.9198 -25.641 89.5805 -26.5557 90.2422 -27.454ZM63.5945 -24.3049C66.9618 -19.8955 70.4595 -14.5368 73.9331 -7.75653C73.0825 -6.94759 72.1893 -6.12719 71.2489 -5.29498L70.868 -4.95788C67.9971 -2.41668 64.256 0.894757 59.6002 4.70537C58.9126 3.29178 58.1931 1.91701 57.4337 0.572979C54.2217 -5.1117 50.3026 -10.2345 45.075 -15.4225C50.4888 -19.5001 55.6791 -23.7108 60.5131 -28.1377C61.5238 -26.9425 62.5521 -25.6699 63.5945 -24.3049ZM56.259 1.23675C57.0554 2.64624 57.8075 4.09081 58.5252 5.58085C54.2819 9.01879 49.3196 12.8316 43.6073 16.8314C40.0914 10.3295 35.1089 4.11917 27.2753 -2.81244C32.9695 -6.67178 38.5822 -10.5753 43.9835 -14.6044C49.2089 -9.44089 53.0887 -4.37396 56.259 1.23675ZM26.121 -2.0314C34.0727 4.9642 39.0273 11.1569 42.4928 17.6075C37.4954 21.0684 31.9415 24.6588 25.8114 28.259C21.8905 21.84 16.3844 15.981 7.97763 10.1292C11.0168 8.07545 14.0727 6.03543 17.1269 3.99656L17.1342 3.99164L17.1355 3.99082C18.9474 2.78125 20.7587 1.57208 22.5656 0.360668C23.7531 -0.435505 24.9386 -1.23263 26.121 -2.0314ZM95.439 -50.3113C97.5209 -47.3302 99.6428 -43.6688 101.822 -39.6756C97.4311 -36.4108 94.3375 -32.8735 91.407 -29.0135C87.2343 -35.8059 82.8011 -42.0777 78.7695 -47.3347C81.7192 -50.3604 85.2458 -53.6261 90.2594 -57.5949C91.9126 -55.3117 93.6436 -52.8821 95.439 -50.3113Z" fill="#BAE400"/>
</svg>
